<svg id="Capa_1" enable-background="new 0 0 512 512" height="512" viewBox="0 0 512 512" width="512" xmlns="http://www.w3.org/2000/svg"><g><g><path clip-rule="evenodd" d="m106.787 25.203c-58.888 0-106.672 47.67-106.787 106.559 0 59.12 47.582 107.048 106.787 107.048 59.003 0 106.815-47.814 106.815-106.818 0-58.975-47.812-106.789-106.815-106.789z" fill="#eff6ff" fill-rule="evenodd"/></g><g><path d="m137.712 386.9c-23.724 0-43.025-19.302-43.025-43.026 0-23.725 19.301-43.027 43.025-43.027 8.582 0 16.9 2.534 24.058 7.33 3.493 2.34 4.426 7.068 2.086 10.56-2.339 3.492-7.068 4.427-10.56 2.086-4.641-3.109-10.03-4.753-15.584-4.753-15.329 0-27.802 12.473-27.802 27.804s12.472 27.803 27.802 27.803c5.746 0 10.587-1.715 14.387-5.095.76-.676 1.447-1.384 2.103-2.166 2.701-3.222 7.501-3.645 10.723-.945s3.645 7.501.945 10.723c-1.138 1.358-2.333 2.589-3.653 3.763-6.576 5.85-15.05 8.943-24.505 8.943z" fill="#375e7d"/></g><g><path d="m87.678 303.127c-1.144 0-2.305-.259-3.399-.806-3.759-1.88-5.284-6.452-3.403-10.212 1.88-3.759 6.471-5.311 10.226-3.432 3.76 1.88 5.298 6.423 3.418 10.184l-.029.057c-1.332 2.667-4.021 4.209-6.813 4.209z" fill="#375e7d"/></g><g><path d="m504.388 54.017h-72.84c-4.204 0-7.612-3.407-7.612-7.612s3.407-7.612 7.612-7.612h72.84c4.204 0 7.612 3.407 7.612 7.612s-3.407 7.612-7.612 7.612z" fill="#375e7d"/></g><g><path d="m467.968 99.789h-36.42c-4.204 0-7.612-3.407-7.612-7.612s3.407-7.612 7.612-7.612h36.42c4.204 0 7.612 3.407 7.612 7.612s-3.408 7.612-7.612 7.612z" fill="#375e7d"/></g><g><path d="m504.388 145.53h-72.84c-4.204 0-7.612-3.407-7.612-7.612 0-4.204 3.407-7.612 7.612-7.612h72.84c4.204 0 7.612 3.407 7.612 7.612s-3.407 7.612-7.612 7.612z" fill="#375e7d"/></g><g><path d="m467.968 191.273h-36.42c-4.204 0-7.612-3.407-7.612-7.612s3.407-7.612 7.612-7.612h36.42c4.204 0 7.612 3.407 7.612 7.612s-3.408 7.612-7.612 7.612z" fill="#375e7d"/></g><g><path d="m504.388 237.015h-72.84c-4.204 0-7.612-3.407-7.612-7.612 0-4.204 3.407-7.612 7.612-7.612h72.84c4.204 0 7.612 3.407 7.612 7.612s-3.407 7.612-7.612 7.612z" fill="#375e7d"/></g><g><path d="m467.968 282.786h-36.42c-4.204 0-7.612-3.407-7.612-7.612s3.407-7.612 7.612-7.612h36.42c4.204 0 7.612 3.407 7.612 7.612s-3.408 7.612-7.612 7.612z" fill="#375e7d"/></g><g><path clip-rule="evenodd" d="m253.877 67.205v239.039c-28.71 20.052-47.496 53.337-47.496 91.024 0 61.249 49.653 110.932 110.929 110.932s110.93-49.683 110.93-110.931c0-37.687-18.785-70.972-47.496-91.024v-239.04c0-34.868-28.538-63.406-63.433-63.406s-63.434 28.539-63.434 63.406z" fill="#eff6ff" fill-rule="evenodd"/></g><g><path clip-rule="evenodd" d="m278.301 341.199c-18.383 12.831-29.286 33.602-29.286 56.07 0 37.745 30.552 68.297 68.295 68.297s68.295-30.552 68.295-68.297c0-22.468-10.903-43.239-29.257-56.07l-18.239-12.716v-137.054l-20.799-11.421-20.799 11.421v137.054z" fill="#eb5468" fill-rule="evenodd"/></g><g><path clip-rule="evenodd" d="m317.31 3.799c-7.652 0-15.017 1.381-21.835 3.884 33.371 1.726 60.154 29.545 60.154 63.349v239.039c28.739 20.052 47.525 53.337 47.525 90.995 0 51.151-34.608 94.218-81.701 107.048 59.348-2.186 106.787-50.978 106.787-110.846 0-37.687-18.785-70.972-47.496-91.024v-239.039c0-34.867-28.538-63.406-63.434-63.406z" fill="#d9eeff" fill-rule="evenodd"/></g><g><path clip-rule="evenodd" d="m317.31 197.182v137.054l18.239 12.716c18.354 12.831 29.257 33.602 29.257 56.07 0 27.589-16.34 51.352-39.872 62.112 34.148-3.769 60.672-32.71 60.672-67.865 0-22.468-10.903-43.239-29.257-56.07l-18.239-12.716v-137.054l-20.799-11.421v17.174z" fill="#e5384f" fill-rule="evenodd"/></g><g><path clip-rule="evenodd" d="m296.511 67.205v124.223h41.598v-124.223c0-11.335-9.436-20.8-20.799-20.8s-20.799 9.465-20.799 20.8z" fill="#9fd4fe" fill-rule="evenodd"/></g><g><path clip-rule="evenodd" d="m317.31 72.959v118.47h20.799v-124.224c0-11.335-9.436-20.8-20.799-20.8-5.897 0-11.277 2.56-15.074 6.588 8.63 2.532 15.074 10.587 15.074 19.966z" fill="#85beef" fill-rule="evenodd"/></g><g><path clip-rule="evenodd" d="m95.797 25.749c47.985 10.472 83.916 53.222 83.916 104.344 0 55.293-42.001 100.748-95.797 106.243 7.365 1.611 15.017 2.474 22.871 2.474 59.003 0 106.815-47.814 106.815-106.818 0-58.976-47.812-106.789-106.815-106.789-3.711 0-7.394.173-10.99.546z" fill="#d9eeff" fill-rule="evenodd"/></g><g><path clip-rule="evenodd" d="m106.787 100.491c-17.376 0-31.501 14.125-31.501 31.502 0 17.405 14.125 31.502 31.501 31.502 17.405 0 31.501-14.097 31.501-31.502 0-17.377-14.097-31.502-31.501-31.502z" fill="#fec165" fill-rule="evenodd"/></g><g><path d="m182.101 139.604h-13.319c-4.204 0-7.612-3.407-7.612-7.612 0-4.204 3.407-7.612 7.612-7.612h13.319c4.204 0 7.612 3.407 7.612 7.612s-3.408 7.612-7.612 7.612z" fill="#fec165"/></g><g><path d="m106.787 214.921c-4.204 0-7.612-3.407-7.612-7.612v-13.348c0-4.204 3.407-7.612 7.612-7.612s7.612 3.407 7.612 7.612v13.348c0 4.204-3.408 7.612-7.612 7.612z" fill="#fec165"/></g><g><path d="m53.537 192.855c-1.951 0-3.904-.746-5.391-2.238-2.968-2.977-2.96-7.797.017-10.764l9.436-9.407c2.977-2.967 7.797-2.959 10.764.017 2.968 2.977 2.96 7.797-.017 10.764l-9.436 9.407c-1.485 1.48-3.43 2.221-5.373 2.221zm97.092-97.065c-1.945 0-3.888-.74-5.374-2.221-2.977-2.968-2.984-7.787-.017-10.764l9.408-9.436c2.967-2.978 7.787-2.984 10.764-.017 2.977 2.968 2.985 7.788.017 10.764l-9.408 9.436c-1.486 1.491-3.439 2.238-5.39 2.238z" fill="#fec165"/></g><g><path d="m106.787 77.636c-4.204 0-7.612-3.407-7.612-7.612v-13.348c0-4.204 3.407-7.612 7.612-7.612s7.612 3.407 7.612 7.612v13.349c0 4.204-3.408 7.611-7.612 7.611z" fill="#fec165"/></g><g><path d="m44.821 139.604h-13.349c-4.204 0-7.612-3.407-7.612-7.612 0-4.204 3.407-7.612 7.612-7.612h13.349c4.204 0 7.612 3.407 7.612 7.612s-3.408 7.612-7.612 7.612z" fill="#fec165"/></g><g><path d="m160.036 192.855c-1.948 0-3.896-.743-5.382-2.229l-9.408-9.407c-2.973-2.972-2.973-7.792-.001-10.764 2.973-2.973 7.793-2.972 10.764-.001l9.408 9.407c2.973 2.972 2.973 7.792.001 10.764-1.486 1.486-3.434 2.23-5.382 2.23zm-97.063-97.065c-1.948 0-3.896-.743-5.383-2.229l-9.436-9.436c-2.972-2.973-2.972-7.792 0-10.765 2.973-2.971 7.792-2.971 10.765 0l9.436 9.436c2.972 2.973 2.972 7.792 0 10.765-1.486 1.485-3.434 2.229-5.382 2.229z" fill="#fec165"/></g><g><path clip-rule="evenodd" d="m97.523 101.9c11.191 4.833 19.016 15.967 19.016 28.913 0 14.154-9.378 26.151-22.238 30.121 3.826 1.64 8.055 2.56 12.485 2.56 17.405 0 31.501-14.097 31.501-31.502 0-17.376-14.096-31.502-31.501-31.502-3.221.001-6.328.49-9.263 1.41z" fill="#fdb441" fill-rule="evenodd"/></g></g></svg>