<svg clip-rule="evenodd" fill-rule="evenodd" height="512" image-rendering="optimizeQuality" shape-rendering="geometricPrecision" text-rendering="geometricPrecision" viewBox="0 0 1707 1707" width="512" xmlns="http://www.w3.org/2000/svg"><g id="Layer_x0020_1"><path d="m1069 473c-71 0-130-59-130-131 0-71 59-130 130-130 72 0 131 59 131 130 0 72-59 131-131 131zm344 531h-1259c-34 0-34-52 0-52h1259c133 0 242-109 242-242 0-134-109-243-242-243s-239 104-243 236c-1 34-52 32-51-2 4-160 133-286 294-286 162 0 294 132 294 295 0 162-132 294-294 294zm-609-208h-650c-34 0-34-52 0-52h650c64 0 115-52 115-116 0-63-51-115-115-115-63 0-114 49-116 112-1 34-52 33-51-1 2-91 76-163 167-163 149 0 223 181 118 286-31 31-73 49-118 49zm82 698c-92 0-165-71-168-162-1-34 51-36 52-2 2 63 52 113 116 113 63 0 115-52 115-116s-52-115-115-115h-732c-34 0-34-52 0-52h732c92 0 167 75 167 167s-75 167-167 167zm-422-859h-224c-34 0-34-52 0-52h224c34 0 34 52 0 52zm685 264h-770c-34 0-34-52 0-52h770c34 0 34 52 0 52zm-353 209h-770c-34 0-34-51 0-51h770c34 0 34 51 0 51zm-150 271h-225c-34 0-34-52 0-52h225c34 0 34 52 0 52zm718 13c-84 0-153-68-153-152 0-85 69-153 153-153 85 0 153 68 153 153 0 84-68 152-153 152zm0-254c-55 0-101 46-101 102 0 55 46 101 101 101 56 0 102-46 102-101 0-56-46-102-102-102zm-295-874c-43 0-78 35-78 78 0 44 35 79 78 79 44 0 79-35 79-79 0-43-35-78-79-78z" fill="#006ea7"/><g fill="#59aae7"><path d="m1364 1138c-55 0-101 46-101 102 0 55 46 101 101 101 56 0 102-46 102-101 0-56-46-102-102-102z"/><path d="m991 342c0 44 35 79 78 79 44 0 79-35 79-79 0-43-35-78-79-78-43 0-78 35-78 78z"/></g></g></svg>